<svg width="14" height="14" viewBox="0 0 14 14" fill="none" xmlns="http://www.w3.org/2000/svg">
<g clip-path="url(#clip0_8645_12184)">
<path d="M6.9502 1.62598L6.94922 1.625C6.94102 1.62621 6.93091 1.62829 6.91992 1.62988C6.90556 1.63196 6.88879 1.63432 6.87305 1.63672C6.83984 1.64177 6.81323 1.64678 6.80371 1.64941C6.66662 1.68733 6.52562 1.78979 6.44629 1.9082C6.34732 2.05608 6.25318 2.22826 6.16113 2.3877L5.63965 3.29199L3.96094 6.19922L1.93945 9.70117L1.30664 10.7969C1.19355 10.9925 1.07412 11.1902 0.970703 11.3867C0.900947 11.5192 0.873532 11.6708 0.898438 11.8184C0.928814 11.9971 1.02904 12.1565 1.17676 12.2617L1.25781 12.3105C1.39384 12.3791 1.53455 12.3874 1.69434 12.3877H7.05762L10.8633 12.3867L11.9189 12.3877C12.0224 12.3877 12.1349 12.3858 12.2402 12.3877C12.5163 12.3926 12.7215 12.3741 12.9092 12.1865L12.9941 12.084C13.0681 11.9743 13.1086 11.8442 13.1094 11.71L13.1025 11.6182C13.0892 11.5259 13.0569 11.434 13.0117 11.3535C12.8916 11.1392 12.7659 10.9263 12.6426 10.7119L11.8457 9.33203L9.48828 5.24805L8.19824 3.01367L7.83691 2.3877C7.72223 2.18899 7.63092 1.99601 7.50195 1.84961C7.37781 1.70877 7.22247 1.61656 6.98242 1.62402C6.97167 1.62437 6.96095 1.62536 6.9502 1.62598ZM14.0625 11.8682L14.0596 11.877L14.0576 11.8838C14.0442 11.9311 14.0349 11.9786 14.0244 12.0303C14.0141 12.0812 14.0031 12.1356 13.9854 12.1914C13.8761 12.5358 13.6571 12.8333 13.3643 13.04L13.2344 13.123C13.0801 13.2127 12.912 13.275 12.7373 13.3066L12.5605 13.3281C12.3364 13.3439 12.0738 13.337 11.8525 13.3369H2.24023C2.08122 13.337 1.87842 13.3427 1.68066 13.3379C1.48254 13.333 1.28097 13.3179 1.12109 13.2734H1.12012C0.704534 13.1547 0.35348 12.8745 0.144531 12.4961C0.0789321 12.3781 0.0349134 12.2738 0 12.1426C-0.00635451 12.1187 -0.017729 12.0634 -0.0283203 12.0166C-0.0338344 11.9923 -0.0397736 11.9691 -0.0449219 11.9502C-0.0474796 11.9408 -0.0497283 11.9328 -0.0517578 11.9268C-0.054026 11.92 -0.0549504 11.9175 -0.0546875 11.918L-0.0625 11.9043V11.5146L-0.0566406 11.5029C-0.044456 11.4755 -0.0376311 11.446 -0.03125 11.4121C-0.0252443 11.3802 -0.0192339 11.34 -0.00878906 11.3018C0.0128322 11.2227 0.0434809 11.1255 0.0820312 11.0479C0.213137 10.7837 0.370373 10.5257 0.515625 10.2744L1.26758 8.97266L3.68652 4.78125L5.01953 2.47363L5.40918 1.79688C5.49867 1.64145 5.59891 1.45612 5.70996 1.30762C5.88057 1.07832 6.11118 0.90051 6.37598 0.792969C6.77802 0.630317 7.22801 0.631465 7.62891 0.796875L7.62988 0.797852C7.90102 0.911416 8.13598 1.09699 8.30859 1.33496C8.44221 1.52086 8.59665 1.8083 8.70996 2.00488L9.35449 3.12207L11.4678 6.78223L13.1523 9.7002L13.6279 10.5244C13.7871 10.7993 13.974 11.0774 14.0312 11.4141C14.038 11.4541 14.049 11.5123 14.0596 11.5459L14.0625 11.5547V11.8682Z" fill="white" stroke="#F3F3F3" stroke-width="0.125"/>
<path d="M7.47461 7.70508V8.52539C7.47461 8.55497 7.47574 8.63963 7.47559 8.71484C7.4755 8.75346 7.47557 8.79202 7.47461 8.82422C7.47371 8.85428 7.47216 8.88428 7.46875 8.90234L7.45898 8.95117L7.40918 8.95312C7.31576 8.95628 7.21983 8.95608 7.125 8.95508C7.02984 8.95408 6.93593 8.95269 6.84473 8.9541C6.75507 8.95552 6.67588 8.95003 6.5957 8.95605L6.5293 8.96094V5.9209L6.52832 5.05566C6.52831 5.03594 6.52865 5.0047 6.52832 4.96777C6.52799 4.93113 6.52736 4.88853 6.52734 4.84668C6.52732 4.76587 6.52838 4.67911 6.53418 4.63965L6.54199 4.58496L6.59668 4.58594C6.73132 4.58772 6.86682 4.58746 7.00293 4.58691C7.13882 4.58637 7.27561 4.58508 7.41211 4.58691L7.47363 4.58789V4.64941L7.47461 7.70508Z" fill="white" stroke="white" stroke-width="0.125"/>
<path d="M6.93652 9.65137C7.27137 9.61701 7.57109 9.8614 7.60449 10.1963C7.63771 10.5314 7.39179 10.8302 7.05664 10.8623C6.7232 10.8941 6.42665 10.6498 6.39355 10.3164C6.36064 9.98316 6.60338 9.6857 6.93652 9.65137Z" fill="#F3F3F3" stroke="white" stroke-width="0.125"/>
</g>
<defs>
<clipPath id="clip0_8645_12184">
<rect width="14" height="14" fill="white"/>
</clipPath>
</defs>
</svg>
