<svg width="252" height="89" viewBox="0 0 252 89" fill="none" xmlns="http://www.w3.org/2000/svg">
<path d="M246.668 24.8482C243.2 20.9659 238.546 19.0248 232.716 19.0248C229.555 19.0248 226.606 19.7033 223.878 21.069C221.918 22.0482 220.154 23.3022 218.586 24.8396C217.929 25.4838 216.838 25.0028 216.838 24.0924C216.83 21.9365 215.424 20.1929 213.293 20.1929H212.568H211.827H202.426C200.219 20.1929 198.744 21.215 198.003 23.2506L188.866 45.4963C187.324 49.2498 182.057 49.2498 180.506 45.5049L171.301 23.2506C170.568 21.2064 169.093 20.1929 166.877 20.1929H165.088L154.247 20.0899H154.17C153.582 20.0899 153.002 19.9696 152.44 19.8064C150.718 19.2997 148.809 19.0334 146.695 19.0334C143.474 19.0334 140.423 19.8665 137.559 21.5414C134.687 23.2077 132.206 25.4065 130.127 28.1292C128.78 25.2261 126.854 22.9758 124.348 21.404C121.843 19.8236 118.757 19.042 115.076 19.042C112.161 19.042 109.51 19.7291 107.132 21.1034C104.754 22.4776 102.658 24.2384 100.851 26.3685V24.9599C100.851 22.3316 98.7373 20.1929 96.1207 20.1929H95.831C92.7031 20.1929 89.6178 20.2273 86.4984 20.0984C84.8194 20.0297 82.97 20.3046 81.8364 21.5586C80.183 23.3966 80.8734 27.1501 80.8734 29.5121V46.0804C80.8734 50.7185 78.4955 55.0302 74.592 57.4781C72.0863 59.0413 69.4272 59.8229 66.6061 59.8229C62.9839 59.8229 60.1032 58.6376 57.9469 56.2756C55.7991 53.9136 54.7252 50.7443 54.7252 46.7847V24.101C54.7252 21.507 53.4212 20.2015 50.8133 20.2015H49.7053C47.566 20.2015 45.8359 21.9451 45.8359 24.101V46.9737C45.8359 50.7529 46.4155 54.0854 47.566 56.9714C48.0433 58.1566 47.4126 59.4622 46.1683 59.6769C44.924 59.8916 43.9183 58.9554 43.9183 57.7787V40.5662C43.9183 33.9784 42.1796 28.7391 38.7193 24.8654C35.2505 20.9831 30.5885 19.042 24.7248 19.042C21.5628 19.042 18.6224 19.7205 15.9122 21.0862C13.1934 22.4433 10.8581 24.35 8.88934 26.7893V3.89944C8.88934 1.74358 7.1592 0 5.01996 0H3.68187C1.22729 0 0 1.29695 0 3.89944V63.3788C0 65.9727 1.22729 67.2782 3.68187 67.2782H5.01996C7.1592 67.2782 8.88934 65.5347 8.88934 63.3788V41.3908C8.88934 36.7441 11.2757 32.4238 15.1962 29.9673C17.6849 28.4213 20.3526 27.6482 23.2077 27.6482C26.7959 27.6482 29.6681 28.8335 31.8158 31.1955C33.9636 33.5575 35.0374 36.7269 35.0374 40.6865V63.3702C35.0374 65.9641 36.3414 67.2697 38.9494 67.2697H54.3161C54.4951 67.2697 54.6656 67.2611 54.8446 67.2439C56.1315 67.1151 57.444 67.1151 58.6798 67.5101C60.6145 68.12 62.7282 68.4378 65.0379 68.4378C68.1999 68.4378 71.1403 67.7592 73.8505 66.3936C75.8108 65.4144 77.575 64.1604 79.1432 62.6316C79.7995 61.996 80.8904 62.4855 80.8734 63.4046C80.8307 65.5433 82.8933 67.2782 85.0155 67.2782H85.8933C88.0325 67.2782 89.7627 65.5347 89.7627 63.3788V28.9108C89.7627 28.2838 90.2655 27.7771 90.8877 27.7771C91.5099 27.7771 92.0127 28.2838 92.0127 28.9108V63.3788C92.0127 65.9727 93.2826 67.2782 95.831 67.2782H96.9815C99.1208 67.2782 100.851 65.5347 100.851 63.3788V39.7674C100.851 35.6876 102.888 31.8912 106.263 29.6495C108.274 28.3182 110.533 27.6568 113.056 27.6568C116.524 27.6568 119.158 28.7992 120.948 31.0925C122.746 33.3857 123.641 36.5809 123.641 40.695V63.3788C123.641 65.9727 124.945 67.2782 127.553 67.2782H128.61C130.749 67.2782 132.479 65.5347 132.479 63.3788V40.6435C132.479 40.3944 132.479 40.1453 132.479 39.8963C132.411 35.8165 134.414 31.9943 137.789 29.7354L137.849 29.6924C139.886 28.3354 142.17 27.6482 144.684 27.6482C148.153 27.6482 150.786 28.7906 152.576 31.0839C154.374 33.3772 155.269 36.5723 155.269 40.6865V63.3702C155.269 65.9641 156.573 67.2697 159.181 67.2697H160.238C162.846 67.2697 164.15 65.9727 164.15 63.3702V40.6349C164.15 35.5244 163.289 31.2385 161.585 27.7599H162.394C163.068 27.7599 163.681 28.155 163.954 28.782L176.773 57.5726C178.716 61.9444 178.758 66.9433 176.883 71.3495C175.844 73.8231 174.54 75.79 172.971 77.2416C171.403 78.6931 169.639 79.4232 167.679 79.4232C166.792 79.4232 165.948 79.2944 165.173 79.0281C164.389 78.7618 163.63 78.4784 162.897 78.1692C161.943 77.8256 161.073 77.8857 160.272 78.3324C159.471 78.779 158.892 79.5778 158.525 80.7202L158.252 81.6048C157.946 82.5668 157.928 83.503 158.21 84.4135C158.482 85.3239 159.284 86.0883 160.605 86.7067C161.431 87.1104 162.514 87.454 163.852 87.7546C165.19 88.0466 166.605 88.1926 168.113 88.1926C171.77 88.1926 175.068 86.9386 178.008 84.4306C180.949 81.9226 183.378 78.5385 185.278 74.2698L205.495 28.5501C205.708 28.0691 206.176 27.7599 206.705 27.7599C207.438 27.7599 208.026 28.3525 208.026 29.0912V63.3616C208.026 65.9555 209.296 67.2611 211.844 67.2611H212.995C215.134 67.2611 216.864 65.5175 216.864 63.3616V41.3736C216.864 36.7269 219.25 32.4066 223.171 29.9501C225.66 28.4041 228.327 27.6311 231.182 27.6311C234.805 27.6311 237.685 28.8164 239.842 31.1784C241.989 33.5403 243.063 36.7097 243.063 40.6693V63.353C243.063 65.9469 244.367 67.2525 246.975 67.2525H248.032C250.171 67.2525 251.901 65.5089 251.901 63.353V40.5233C251.901 33.9354 250.163 28.6961 246.702 24.8224L246.668 24.8482Z" fill="white"/>
</svg>
