<svg width="231" height="54" viewBox="0 0 231 54" fill="none" xmlns="http://www.w3.org/2000/svg">
<g clip-path="url(#clip0_8667_14268)">
<path d="M148.774 14.9359C146.682 12.6023 143.875 11.4355 140.359 11.4355C138.452 11.4355 136.673 11.8434 135.028 12.6643C133.846 13.2528 132.782 14.0066 131.836 14.9307C131.44 15.3179 130.782 15.0288 130.782 14.4815C130.777 13.1857 129.929 12.1376 128.644 12.1376H128.207H127.76H122.09C120.759 12.1376 119.869 12.752 119.422 13.9756L113.912 27.3471C112.981 29.6033 109.804 29.6033 108.869 27.3523L103.317 13.9756C102.875 12.7469 101.986 12.1376 100.649 12.1376H99.5698L93.0312 12.0757H92.985C92.6303 12.0757 92.2807 12.0034 91.9415 11.9053C90.9031 11.6007 89.7516 11.4407 88.4768 11.4407C86.5338 11.4407 84.6935 11.9415 82.9663 12.9482C81.234 13.9498 79.7381 15.2714 78.4839 16.908C77.6717 15.163 76.5099 13.8104 74.9987 12.8656C73.4874 11.9157 71.6265 11.4458 69.4059 11.4458C67.6479 11.4458 66.0492 11.8589 64.615 12.6849C63.1808 13.5109 61.9163 14.5693 60.8265 15.8497V15.003C60.8265 13.4232 59.5517 12.1376 57.9736 12.1376H57.7988C55.9123 12.1376 54.0515 12.1583 52.1701 12.0809C51.1574 12.0396 50.0419 12.2048 49.3583 12.9585C48.361 14.0634 48.7774 16.3195 48.7774 17.7392V27.6982C48.7774 30.4861 47.3432 33.0778 44.9889 34.5492C43.4776 35.4888 41.8738 35.9586 40.1723 35.9586C37.9877 35.9586 36.2502 35.2462 34.9497 33.8264C33.6543 32.4066 33.0066 30.5016 33.0066 28.1216V14.4867C33.0066 12.9276 32.2201 12.1428 30.6472 12.1428H29.9789C28.6887 12.1428 27.6452 13.1909 27.6452 14.4867V28.2351C27.6452 30.5067 27.9947 32.5099 28.6887 34.2446C28.9765 34.9571 28.5961 35.7418 27.8456 35.8709C27.0951 35.9999 26.4886 35.4372 26.4886 34.7299V24.3837C26.4886 20.4239 25.4399 17.2746 23.3529 14.9462C21.2608 12.6126 18.449 11.4458 14.9123 11.4458C13.0053 11.4458 11.2318 11.8537 9.59716 12.6746C7.95736 13.4903 6.54889 14.6364 5.36145 16.1026V2.34389C5.36145 1.04804 4.31795 0 3.0277 0H2.22066C0.74022 0 0 0.779577 0 2.34389V38.096C0 39.6552 0.74022 40.4399 2.22066 40.4399H3.0277C4.31795 40.4399 5.36145 39.3919 5.36145 38.096V24.8793C5.36145 22.0863 6.80077 19.4894 9.16536 18.0129C10.6664 17.0836 12.2753 16.6189 13.9974 16.6189C16.1615 16.6189 17.8938 17.3314 19.1892 18.7511C20.4846 20.1709 21.1322 22.076 21.1322 24.456V38.0908C21.1322 39.65 21.9187 40.4347 23.4917 40.4347H32.7599C32.8678 40.4347 32.9706 40.4296 33.0786 40.4193C33.8548 40.3418 34.6464 40.3418 35.3918 40.5793C36.5586 40.9459 37.8335 41.1369 39.2265 41.1369C41.1336 41.1369 42.907 40.729 44.5417 39.9081C45.724 39.3196 46.7881 38.5658 47.7339 37.6468C48.1297 37.2648 48.7877 37.5591 48.7774 38.1115C48.7517 39.397 49.9957 40.4399 51.2756 40.4399H51.8051C53.0954 40.4399 54.1389 39.3919 54.1389 38.096V17.3778C54.1389 17.001 54.4421 16.6964 54.8174 16.6964C55.1926 16.6964 55.4959 17.001 55.4959 17.3778V38.096C55.4959 39.6552 56.2618 40.4399 57.7988 40.4399H58.4928C59.783 40.4399 60.8265 39.3919 60.8265 38.096V23.9036C60.8265 21.4513 62.0551 19.1693 64.0907 17.8218C65.3038 17.0216 66.666 16.6241 68.1876 16.6241C70.2798 16.6241 71.8681 17.3107 72.9476 18.6892C74.0323 20.0676 74.572 21.9882 74.572 24.4612V38.096C74.572 39.6552 75.3585 40.4399 76.9315 40.4399H77.5689C78.8591 40.4399 79.9026 39.3919 79.9026 38.096V24.4302C79.9026 24.2805 79.9026 24.1307 79.9026 23.981C79.8615 21.5287 81.0695 19.2313 83.1051 17.8735L83.1411 17.8477C84.3696 17.0319 85.7473 16.6189 87.2637 16.6189C89.3558 16.6189 90.9442 17.3056 92.0237 18.684C93.1083 20.0625 93.6481 21.983 93.6481 24.456V38.0908C93.6481 39.65 94.4346 40.4347 96.0075 40.4347H96.645C98.2179 40.4347 99.0044 39.6552 99.0044 38.0908V24.425C99.0044 21.3532 98.4852 18.777 97.4571 16.686H97.9455C98.3516 16.686 98.7217 16.9235 98.8862 17.3004L106.617 34.606C107.789 37.2338 107.815 40.2386 106.684 42.887C106.057 44.3739 105.271 45.5562 104.325 46.4287C103.379 47.3012 102.315 47.74 101.133 47.74C100.598 47.74 100.089 47.6626 99.6213 47.5026C99.1483 47.3425 98.6908 47.1721 98.2488 46.9863C97.673 46.7798 97.1487 46.8159 96.6655 47.0844C96.1823 47.3528 95.8328 47.833 95.6117 48.5196L95.4472 49.0514C95.2622 49.6296 95.2519 50.1924 95.4215 50.7396C95.586 51.2869 96.0692 51.7463 96.866 52.1181C97.3646 52.3607 98.0174 52.5672 98.8245 52.7479C99.6315 52.9235 100.485 53.0112 101.395 53.0112C103.6 53.0112 105.589 52.2575 107.363 50.7499C109.136 49.2424 110.601 47.2083 111.747 44.6424L123.941 17.161C124.069 16.8719 124.352 16.686 124.67 16.686C125.113 16.686 125.467 17.0423 125.467 17.4863V38.0857C125.467 39.6448 126.233 40.4296 127.77 40.4296H128.464C129.754 40.4296 130.798 39.3815 130.798 38.0857V24.869C130.798 22.076 132.237 19.4791 134.602 18.0025C136.103 17.0732 137.712 16.6086 139.434 16.6086C141.618 16.6086 143.356 17.3211 144.656 18.7408C145.952 20.1606 146.6 22.0656 146.6 24.4457V38.0805C146.6 39.6397 147.386 40.4244 148.959 40.4244H149.596C150.887 40.4244 151.93 39.3764 151.93 38.0805V24.3579C151.93 20.3981 150.881 17.2488 148.794 14.9204L148.774 14.9359Z" fill="#FF6E42"/>
<path d="M177.377 34.853C177.691 34.853 177.809 34.9305 177.809 35.168C177.809 35.4054 177.691 35.4829 177.377 35.4829C176.359 35.4829 174.601 35.2867 173.316 35.2867H172.262C170.854 35.2867 169.332 35.4829 167.847 35.4829C167.497 35.4829 167.379 35.4054 167.379 35.168C167.379 34.9305 167.497 34.853 167.811 34.853C170.35 34.853 171.676 34.3419 171.676 31.3217V7.54202C171.676 4.95032 171.049 4.91418 170.427 4.91418C169.451 4.91418 168.201 5.15167 167.811 5.18781C167.497 5.22911 167.379 5.18781 167.379 4.95032C167.379 4.79544 167.497 4.67669 167.847 4.59925C169.723 4.20688 172.884 2.71484 173.553 2.71484H173.594C173.907 2.71484 174.103 2.98847 174.103 3.38084C174.103 7.42328 173.866 11.5432 173.866 17.5836V31.3165C173.866 34.3368 175.429 34.8479 177.382 34.8479L177.377 34.853Z" fill="#FF6E42"/>
<path d="M177.531 31.3618C177.531 27.4381 181.633 24.9652 185.617 22.9672C186.44 22.5748 187.103 21.5526 187.103 20.6543V20.2206C187.103 16.0233 185.499 14.65 183.51 14.65C181.752 14.65 180.816 15.6309 180.816 17.1591C180.816 18.4549 181.402 19.1209 181.402 20.2567C181.402 21.1602 180.893 21.7488 180.035 21.7488C178.981 21.7488 178.318 20.5303 178.318 19.2758C178.318 16.1781 180.898 13.9375 184.178 13.9375C187.108 13.9375 189.452 15.6257 189.452 19.8643C189.452 23.8655 189.257 27.9079 189.257 31.9091C189.257 33.7522 189.801 34.222 190.506 34.222C191.133 34.222 192.187 33.4372 193.086 30.2983C193.127 30.0247 193.204 29.9472 193.359 29.9472C193.513 29.9472 193.595 30.066 193.513 30.3809C192.536 34.1084 191.637 35.9154 189.529 35.9154C187.848 35.9154 186.285 34.6608 186.99 31.7542C187.144 31.1243 186.599 31.1243 186.285 31.6767C184.568 34.9344 183.705 35.9154 181.52 35.9154C178.981 35.9154 177.536 33.8761 177.536 31.3618H177.531ZM182.492 33.8709C184.99 33.8709 187.103 30.8507 187.103 26.5346V24.454C187.103 23.5144 186.44 23.1221 185.617 23.5144C182.101 25.2801 179.798 27.4381 179.798 30.4583C179.798 32.2653 180.58 33.8709 182.492 33.8709Z" fill="#FF6E42"/>
<path d="M193.666 33.9908C193.979 32.855 194.133 31.5592 194.133 29.9484V7.54202C194.133 4.95032 193.506 4.91418 192.884 4.91418C191.908 4.91418 190.617 5.15167 190.227 5.18781C189.954 5.22911 189.836 5.18781 189.836 4.95032C189.836 4.79544 189.954 4.67669 190.304 4.59925C192.139 4.20688 195.264 2.75615 196.01 2.71484C196.359 2.71484 196.554 2.98847 196.554 3.38084C196.554 6.79342 196.318 10.2473 196.318 13.6238V17.9398C196.318 18.4871 196.786 18.5284 197.058 18.0586C198.307 15.9418 199.87 13.98 201.823 13.98C205.026 13.98 207.175 17.8262 207.175 24.1816C207.175 31.2443 204.872 35.9166 199.207 35.9166C197.372 35.9166 193.388 35.0905 193.66 33.996L193.666 33.9908ZM200.153 35.0905C203.201 35.0905 204.882 32.1477 204.882 25.0438C204.882 19.1582 203.165 15.978 200.662 15.978C198.513 15.978 196.323 18.6058 196.323 22.9632V30.1446C196.323 33.6346 197.963 35.0905 200.153 35.0905Z" fill="#FF6E42"/>
<path d="M211.168 35.5169C210.541 35.5169 209.996 35.713 209.646 35.713C209.492 35.713 209.333 35.6356 209.333 35.2794C209.374 31.1595 208.397 28.1754 208.279 27.3907C208.202 27.0757 208.279 26.9209 208.515 26.9209C208.711 26.9209 208.788 27.0396 208.865 27.3545C210.078 31.5932 210.546 35.2019 215.352 35.2019C217.347 35.2019 218.282 33.8699 218.282 32.1404C218.282 29.59 217.11 28.1393 213.594 25.0365C210.428 22.2899 209.415 20.8753 209.415 18.7585C209.415 15.9706 211.409 13.9727 214.103 13.9727C215.547 13.9727 216.252 14.3237 217.424 14.3237C218.128 14.3237 218.714 14.1275 219.063 14.1275C219.218 14.1275 219.377 14.205 219.377 14.5199C219.336 18.9547 219.768 20.2506 219.768 21.5051C219.768 21.8562 219.649 21.9749 219.495 21.9749C219.341 21.9749 219.259 21.8562 219.223 21.5051C218.519 16.5231 217.115 14.6387 213.99 14.6387C212.35 14.6387 211.255 16.0532 211.255 17.8551C211.255 19.8943 212.622 21.1128 215.162 23.2295C218.637 26.2136 220.086 27.9379 220.086 30.6432C220.086 34.1332 217.897 35.8989 215.28 35.8989C213.208 35.8989 212.35 35.5065 211.178 35.5065L211.168 35.5169Z" fill="#FF6E42"/>
<path d="M168.688 45.6698C161.99 40.4915 158.012 32.3757 158.012 22.8349C158.012 13.2941 161.543 4.64648 168 0V0.857018C163.085 5.71001 160.654 13.8259 160.654 22.8349C160.654 31.276 163.455 39.5519 168.694 44.8128V45.6698H168.688Z" fill="#FF6E42"/>
<path d="M220.324 44.8128C225.562 39.5519 228.364 31.276 228.364 22.8349C228.364 13.8207 225.927 5.71001 221.013 0.857018V0C227.511 4.64648 231.001 13.1289 231.001 22.8349C231.001 32.5409 227.063 40.4915 220.324 45.6698V44.8128Z" fill="#FF6E42"/>
</g>
<defs>
<clipPath id="clip0_8667_14268">
<rect width="231" height="53.0164" fill="white"/>
</clipPath>
</defs>
</svg>
