<svg width="122" height="76" viewBox="0 0 122 76" fill="none" xmlns="http://www.w3.org/2000/svg">
<path d="M32.1082 57.9865C32.6281 57.9865 32.8241 58.1154 32.8241 58.5105C32.8241 58.9056 32.6281 59.0344 32.1082 59.0344C30.4207 59.0344 27.5059 58.708 25.3752 58.708H23.628C21.2927 58.708 18.7699 59.0344 16.3068 59.0344C15.7273 59.0344 15.5312 58.9056 15.5312 58.5105C15.5312 58.1154 15.7273 57.9865 16.2472 57.9865C20.4575 57.9865 22.6564 57.1362 22.6564 52.1116V12.5503C22.6564 8.2386 21.6166 8.17848 20.5853 8.17848C18.966 8.17848 16.8949 8.57358 16.2472 8.6337C15.7273 8.70241 15.5312 8.6337 15.5312 8.2386C15.5312 7.98093 15.7273 7.78338 16.3068 7.65454C19.4177 7.00177 24.6592 4.51953 25.7672 4.51953H25.8354C26.3553 4.51953 26.6792 4.97475 26.6792 5.62752C26.6792 12.3528 26.2871 19.2069 26.2871 29.2561V52.103C26.2871 57.1276 28.8781 57.978 32.1167 57.978L32.1082 57.9865Z" fill="white"/>
<path d="M32.3633 52.1835C32.3633 45.6558 39.1645 41.5416 45.7697 38.2176C47.1334 37.5648 48.2329 35.8642 48.2329 34.3697V33.6482C48.2329 26.6653 45.5737 24.3806 42.2754 24.3806C39.3605 24.3806 37.8094 26.0125 37.8094 28.5549C37.8094 30.7108 38.781 31.8187 38.781 33.7083C38.781 35.2114 37.9372 36.1906 36.5139 36.1906C34.7667 36.1906 33.6673 34.1636 33.6673 32.0764C33.6673 26.923 37.9458 23.1953 43.3834 23.1953C48.2414 23.1953 52.1278 26.0039 52.1278 33.0556C52.1278 39.7121 51.8039 46.4374 51.8039 53.0939C51.8039 56.1602 52.7074 56.9418 53.875 56.9418C54.9148 56.9418 56.6619 55.6363 58.1534 50.4141C58.2216 49.9589 58.3495 49.83 58.6052 49.83C58.8608 49.83 58.9972 50.0276 58.8609 50.5515C57.2415 56.7528 55.75 59.759 52.2556 59.759C49.4687 59.759 46.8777 57.6719 48.0454 52.8362C48.301 51.7884 47.3976 51.7884 46.8777 52.7074C44.0311 58.1271 42.5992 59.759 38.977 59.759C34.7667 59.759 32.3718 56.3663 32.3718 52.1835H32.3633ZM40.5879 56.3577C44.73 56.3577 48.2329 51.3331 48.2329 44.1527V40.6913C48.2329 39.1281 47.1334 38.4753 45.7697 39.1281C39.9401 42.0655 36.1219 45.6558 36.1219 50.6804C36.1219 53.6865 37.4174 56.3577 40.5879 56.3577Z" fill="white"/>
<path d="M59.1191 56.5522C59.639 54.6626 59.8947 52.5067 59.8947 49.8269V12.5503C59.8947 8.2386 58.8549 8.17848 57.8236 8.17848C56.2043 8.17848 54.065 8.57358 53.4173 8.6337C52.9656 8.70241 52.7695 8.6337 52.7695 8.2386C52.7695 7.98093 52.9656 7.78338 53.5451 7.65454C56.5878 7.00177 61.7697 4.58824 63.0055 4.51953C63.585 4.51953 63.9089 4.97475 63.9089 5.62752C63.9089 11.3049 63.5169 17.051 63.5169 22.6683V29.8487C63.5169 30.7592 64.2924 30.8279 64.7442 30.0463C66.8152 26.5247 69.4061 23.2609 72.6448 23.2609C77.9546 23.2609 81.5171 29.6598 81.5171 40.2329C81.5171 51.9828 77.6989 59.7559 68.3067 59.7559C65.264 59.7559 58.6588 58.3816 59.1105 56.5607L59.1191 56.5522ZM69.8749 58.3816C74.929 58.3816 77.7159 53.4859 77.7159 41.6673C77.7159 31.8757 74.8693 26.5849 70.7187 26.5849C67.1561 26.5849 63.5254 30.9567 63.5254 38.2059V50.1533C63.5254 55.9595 66.2442 58.3816 69.8749 58.3816Z" fill="white"/>
<path d="M88.1384 59.0922C87.0986 59.0922 86.1952 59.4186 85.6157 59.4186C85.36 59.4186 85.0958 59.2898 85.0958 58.6971C85.164 51.843 83.5446 46.8786 83.3486 45.573C83.2207 45.0491 83.3486 44.7914 83.7407 44.7914C84.0645 44.7914 84.1924 44.989 84.3202 45.5129C86.3316 52.5645 87.1072 58.5683 95.076 58.5683C98.3829 58.5683 99.9341 56.3523 99.9341 53.475C99.9341 49.232 97.9908 46.8184 92.1612 41.6564C86.9111 37.087 85.2322 34.7336 85.2322 31.2121C85.2322 26.574 88.539 23.25 93.005 23.25C95.3999 23.25 96.5675 23.8341 98.5108 23.8341C99.6784 23.8341 100.65 23.5077 101.23 23.5077C101.485 23.5077 101.749 23.6365 101.749 24.1604C101.681 31.5385 102.397 33.6943 102.397 35.7815C102.397 36.3655 102.201 36.5631 101.945 36.5631C101.69 36.5631 101.553 36.3655 101.494 35.7815C100.326 27.493 97.9994 24.358 92.8175 24.358C90.0987 24.358 88.2833 26.7114 88.2833 29.709C88.2833 33.1017 90.5504 35.1287 94.7607 38.6502C100.522 43.6147 102.926 46.4835 102.926 50.9841C102.926 56.7903 99.2948 59.7278 94.9567 59.7278C91.522 59.7278 90.0987 59.075 88.1555 59.075L88.1384 59.0922Z" fill="white"/>
<path d="M17.702 75.979C6.59668 67.3641 0 53.8621 0 37.9895C0 22.1169 5.85519 7.73017 16.5599 0V1.42579C8.41205 9.49952 4.38073 23.0015 4.38073 37.9895C4.38073 52.0326 9.0257 65.8009 17.7105 74.5532V75.979H17.702Z" fill="white"/>
<path d="M103.312 74.5532C111.997 65.8009 116.642 52.0326 116.642 37.9895C116.642 22.993 112.602 9.49952 104.455 1.42579V0C115.227 7.73017 121.014 21.842 121.014 37.9895C121.014 54.137 114.486 67.3641 103.312 75.979V74.5532Z" fill="white"/>
</svg>
