<svg width="62" height="28" viewBox="0 0 62 28" fill="none" xmlns="http://www.w3.org/2000/svg">
<path d="M13.7471 0C15.264 1.23574e-06 16.7233 0.246418 18.0879 0.700195C12.6232 2.51775 8.68262 7.67196 8.68262 13.7471C8.68262 19.8221 12.6234 24.9753 18.0879 26.793C16.7233 27.2468 15.2641 27.4941 13.7471 27.4941C6.15478 27.4941 2.06188e-07 21.3394 0 13.7471C0 6.15478 6.15478 0 13.7471 0Z" fill="#FF6E42"/>
<path d="M25.3252 0C26.8421 2.17053e-05 28.3015 0.246401 29.666 0.700195C24.2013 2.5177 20.2607 7.6719 20.2607 13.7471C20.2607 19.8221 24.2014 24.9754 29.666 26.793C28.3014 27.2468 26.8422 27.4941 25.3252 27.4941C17.7329 27.4941 11.5781 21.3394 11.5781 13.7471C11.5781 6.15478 17.7329 0 25.3252 0Z" fill="#FF6E42"/>
<path d="M47.7529 27.4961C46.236 27.4961 44.7767 27.2497 43.4121 26.7959C48.8768 24.9783 52.8174 19.8241 52.8174 13.749C52.8174 7.67402 48.8766 2.52076 43.4121 0.703123C44.7767 0.249283 46.2359 0.0019537 47.7529 0.00195192C55.3452 0.00195259 61.5 6.15673 61.5 13.749C61.5 21.3413 55.3452 27.4961 47.7529 27.4961Z" fill="#FF6E42"/>
<path d="M36.1748 27.4961C34.6579 27.4961 33.1985 27.2497 31.834 26.7959C37.2987 24.9784 41.2393 19.8242 41.2393 13.749C41.2393 7.67396 37.2986 2.52071 31.834 0.703123C33.1986 0.249266 34.6578 0.00197277 36.1748 0.00195192C43.7671 0.00195259 49.9219 6.15673 49.9219 13.749C49.9219 21.3413 43.7671 27.4961 36.1748 27.4961Z" fill="#FF6E42"/>
</svg>
