<svg width="24" height="24" viewBox="0 0 24 24" fill="none" xmlns="http://www.w3.org/2000/svg">
<path d="M9.14141 1.86016C10.0171 1.83423 11.0317 2.45542 11.9256 2.47604C12.8548 2.49751 13.686 1.96392 14.6003 1.87016C16.221 1.70394 16.5727 3.66955 17.7316 4.38477C18.496 4.8565 19.6271 4.94125 20.3064 5.50443C21.3652 6.38216 20.5978 8.07072 21.1335 9.25318C21.5378 10.1457 22.4805 10.8917 22.5729 11.8571C22.6724 12.898 21.632 13.7402 21.1862 14.6288C20.656 15.6857 21.1585 16.9787 20.6991 17.991C20.1203 19.1253 18.5206 19.0227 17.5911 19.7061C16.6017 20.4337 16.2471 22.0232 14.8857 22.1383C14.002 22.174 13.1063 21.5987 12.2017 21.5431C11.1513 21.4785 10.4106 22.017 9.41748 22.1295C7.76607 22.3166 7.43727 20.3329 6.26919 19.6158C5.50191 19.1448 4.36688 19.0564 3.68579 18.4902C2.6357 17.6171 3.40918 15.8847 2.84912 14.7024C2.43962 13.838 1.49842 13.0781 1.41936 12.1354C1.33102 11.0821 2.37127 10.2464 2.81609 9.35938C3.3324 8.32982 2.85383 7.01036 3.29741 6.00948C3.7862 4.90658 5.51162 4.96049 6.39013 4.29622C6.99657 3.83767 7.34244 3.14193 7.83127 2.57542C8.22006 2.12489 8.54591 1.90601 9.14141 1.86016ZM10.3404 9.82398C10.0646 9.91644 9.67977 9.95169 9.3827 9.99287L8.01378 10.1819C7.77141 10.2153 7.41516 10.2471 7.20083 10.3507C7.13237 10.464 7.05434 10.576 7.08437 10.7149C7.13075 10.9297 9.0155 12.6932 9.30359 12.9748C9.22133 13.7267 9.04515 14.4737 8.93063 15.2489C8.87506 15.6251 8.55113 16.56 9.41938 16.281C9.62246 16.2157 9.92886 16.0241 10.1281 15.9175L11.3702 15.2558C11.5785 15.1456 11.8852 14.9304 12.1141 14.9994C12.6875 15.2954 13.2585 15.5958 13.8271 15.9008C14.0912 16.0407 14.3864 16.2352 14.6702 16.323C14.7544 16.349 14.8532 16.3527 14.9373 16.3243C15.0281 16.2936 15.0974 16.2286 15.1379 16.1423C15.2707 15.8591 14.718 13.5402 14.7006 12.9824C14.8277 12.8098 15.1428 12.5155 15.3062 12.3563C15.6433 12.0268 15.9823 11.6995 16.3233 11.3741C16.495 11.2107 16.714 11.042 16.8422 10.8434C16.8915 10.767 16.9208 10.6585 16.9068 10.5679C16.8925 10.4748 16.8418 10.3966 16.764 10.3438C16.5017 10.1657 14.1508 9.95647 13.6331 9.82759C13.4121 9.33097 13.1577 8.83818 12.9208 8.34833C12.7273 7.94837 12.535 7.5411 12.3201 7.15335C12.2128 6.96538 12.0585 6.96676 11.86 6.98165C11.6243 7.13605 11.4678 7.54581 11.3422 7.8014L10.6931 9.12585C10.6031 9.30906 10.4415 9.6614 10.3404 9.82398Z" fill="#FF6E42"/>
</svg>
