<svg width="14" height="13" viewBox="0 0 14 13" fill="none" xmlns="http://www.w3.org/2000/svg">
<path d="M4.86789 0.000497637C5.41957 -0.0158409 6.05868 0.375482 6.62183 0.388475C7.20719 0.401999 7.73078 0.0658606 8.30675 0.00679179C9.32775 -0.0979174 9.54927 1.14033 10.2794 1.59089C10.7609 1.88806 11.4734 1.94145 11.9014 2.29623C12.5684 2.84916 12.0849 3.91288 12.4224 4.65778C12.6771 5.22 13.2709 5.68996 13.3291 6.29812C13.3919 6.95389 12.7364 7.48439 12.4556 8.04421C12.1216 8.70996 12.4382 9.52455 12.1487 10.1622C11.7841 10.8768 10.7764 10.8122 10.1908 11.2427C9.56758 11.701 9.3442 12.7023 8.48656 12.7748C7.92986 12.7974 7.36563 12.435 6.79577 12.3999C6.13403 12.3592 5.66741 12.6984 5.04181 12.7693C4.00149 12.8872 3.79436 11.6375 3.05852 11.1858C2.57517 10.8891 1.86015 10.8334 1.43109 10.4767C0.769577 9.9267 1.25684 8.83536 0.904023 8.09057C0.646056 7.54602 0.0531386 7.06732 0.00333458 6.47343C-0.0523103 5.80989 0.603002 5.28346 0.88322 4.72468C1.20847 4.0761 0.906991 3.2449 1.18643 2.61439C1.49434 1.91961 2.58128 1.95357 3.13471 1.53511C3.51674 1.24624 3.73462 0.807952 4.04257 0.451077C4.28748 0.167261 4.49276 0.0293787 4.86789 0.000497637ZM5.62318 5.01736C5.44947 5.07561 5.20704 5.09781 5.0199 5.12375L4.15754 5.24284C4.00486 5.26388 3.78044 5.28392 3.64541 5.34918C3.60229 5.42054 3.55314 5.49111 3.57205 5.57862C3.60127 5.71392 4.78858 6.82486 4.97007 7.00222C4.91824 7.4759 4.80726 7.94651 4.73512 8.43484C4.70011 8.67179 4.49605 9.26074 5.043 9.085C5.17094 9.04389 5.36396 8.92319 5.48949 8.85601L6.27197 8.43915C6.40318 8.36977 6.59639 8.23417 6.74056 8.27768C7.10177 8.4641 7.46148 8.65338 7.81967 8.84551C7.98606 8.9336 8.17199 9.05615 8.35078 9.11145C8.40383 9.12786 8.46608 9.13019 8.51905 9.11228C8.57625 9.09294 8.61992 9.05198 8.64542 8.99762C8.72909 8.81925 8.38093 7.35844 8.36997 7.00702C8.45003 6.89833 8.64852 6.7129 8.75146 6.61262C8.96378 6.40507 9.17736 6.19882 9.39219 5.99386C9.50037 5.89095 9.63831 5.78465 9.71906 5.65955C9.75013 5.61143 9.7686 5.54305 9.75978 5.48599C9.75073 5.42737 9.71878 5.37807 9.66981 5.34484C9.50455 5.23266 8.0236 5.10082 7.69749 5.01963C7.55827 4.70679 7.39799 4.39634 7.24872 4.08776C7.12684 3.83581 7.00574 3.57924 6.87035 3.33498C6.80272 3.21656 6.70554 3.21743 6.58049 3.22681C6.43203 3.32408 6.3334 3.58221 6.25429 3.74322L5.84539 4.57757C5.7887 4.69298 5.68692 4.91494 5.62318 5.01736Z" fill="#FF6E42"/>
</svg>
